<svg xmlns="http://www.w3.org/2000/svg" viewBox="0 0 500 500"><g id="freepik--background-simple--inject-2"><path d="M456,238.25c-4.94,41.8-24,90.4-62.14,112.73-57.6,33.74-52.77,85.64-165.19,108.2a231.3,231.3,0,0,1-49.85,4.71,192.77,192.77,0,0,1-24.46-2c-71.45-10.43-119.53-60.1-137.17-120C-6.07,263,40.28,211.38,71,180.28s53.22-128,163.56-151a223.81,223.81,0,0,1,51.23-4.87c39.26,1,82.08,13.85,111.71,40.76q3.35,3,6.5,6.28C445.19,113.67,462.69,181.26,456,238.25Z" style="fill:#92E3A9"></path><path d="M456,238.25c-4.94,41.8-24,90.4-62.14,112.73-57.6,33.74-52.77,85.64-165.19,108.2a231.3,231.3,0,0,1-49.85,4.71,192.77,192.77,0,0,1-24.46-2c-71.45-10.43-119.53-60.1-137.17-120C-6.07,263,40.28,211.38,71,180.28s53.22-128,163.56-151a223.81,223.81,0,0,1,51.23-4.87c39.26,1,82.08,13.85,111.71,40.76q3.35,3,6.5,6.28C445.19,113.67,462.69,181.26,456,238.25Z" style="fill:#fff;opacity:0.7000000000000001"></path></g><g id="freepik--Window--inject-2"><rect x="152.42" y="50.54" width="294.33" height="247.31" style="fill:#fff;stroke:#bfbfbf;stroke-linejoin:round"></rect><rect x="157.62" y="54.9" width="283.95" height="238.58" style="fill:#fff;stroke:#bfbfbf;stroke-linejoin:round"></rect><rect x="247.39" y="50.54" width="7.71" height="247.31" style="fill:#fff;stroke:#bfbfbf;stroke-linejoin:round"></rect><rect x="349.55" y="50.54" width="7.71" height="247.31" style="fill:#fff;stroke:#bfbfbf;stroke-linejoin:round"></rect><line x1="235.98" y1="82" x2="180.72" y2="137.26" style="fill:#fff;stroke:#bfbfbf;stroke-linejoin:round"></line><line x1="241.51" y1="76.47" x2="238.26" y2="79.73" style="fill:#fff;stroke:#bfbfbf;stroke-linejoin:round"></line><line x1="202.01" y1="125.23" x2="185.97" y2="141.27" style="fill:#fff;stroke:#bfbfbf;stroke-linejoin:round"></line><line x1="288.71" y1="201.47" x2="273.61" y2="216.57" style="fill:#fff;stroke:#bfbfbf;stroke-linejoin:round"></line><line x1="299.53" y1="190.65" x2="291.29" y2="198.89" style="fill:#fff;stroke:#bfbfbf;stroke-linejoin:round"></line><line x1="305.08" y1="194.97" x2="285.02" y2="215.03" style="fill:#fff;stroke:#bfbfbf;stroke-linejoin:round"></line><line x1="408.02" y1="75.36" x2="375.13" y2="108.26" style="fill:#fff;stroke:#bfbfbf;stroke-linejoin:round"></line><line x1="414.32" y1="69.06" x2="410.9" y2="72.48" style="fill:#fff;stroke:#bfbfbf;stroke-linejoin:round"></line><line x1="420.55" y1="199.23" x2="401.05" y2="218.73" style="fill:#fff;stroke:#bfbfbf;stroke-linejoin:round"></line><line x1="432.22" y1="187.56" x2="423.59" y2="196.19" style="fill:#fff;stroke:#bfbfbf;stroke-linejoin:round"></line><line x1="409.38" y1="201.76" x2="383.46" y2="227.68" style="fill:#fff;stroke:#bfbfbf;stroke-linejoin:round"></line></g><g id="freepik--Poster--inject-2"><rect x="33.76" y="58.8" width="88.08" height="226.51" style="fill:#fff;stroke:#bfbfbf;stroke-linejoin:round"></rect><rect x="54.52" y="77.98" width="46.54" height="2.07" style="fill:#bfbfbf"></rect><rect x="45.21" y="72.39" width="65.16" height="2.9" style="fill:#bfbfbf"></rect><path d="M88.29,102s.36-5-2-8.06-7.71-3.05-10-2.15S71.62,94.29,71.09,97a27.61,27.61,0,0,0-.36,5.92,1.73,1.73,0,0,0-1.26,2.33,7.35,7.35,0,0,0,1.62,3s.53,2.51.89,3.58a17.56,17.56,0,0,0,2.33,3.41s.36,2.69-.89,3.58-4.31,1.62-8.61,3a13.68,13.68,0,0,0-9.14,10,30.55,30.55,0,0,0-.36,8.78L53.7,150.93a27,27,0,0,0-1.79,8.78c-.18,5-1.08,15.06-1.08,15.06s1.08.71-1.43,2-2.69,2.15-3,3-.54,2.68-1.25,3.22-3.05,0-2.69,1.79,2.86.72,2.86.72l1.62-.36v9.14c0,.9.54,2.16,1.43,1.08,0,0,.9,1.25,1.44.72l.87-.51a3,3,0,0,0,1.56.25c.5-.18,1.49-1.56,1.49-1.56s.25.75,1.19-.37a7.77,7.77,0,0,0,1.3-3.43c.25-.93,1.06-6,1.31-6.91a39.67,39.67,0,0,0,0-5.49l-.18-2s4.05-11,4.73-13.64a57.81,57.81,0,0,0,1.68-7.61C64,152.6,65,148.18,65,148.18l.44-.19s.06,10.53-.19,11.9-2.12,3.93-1.93,7.17-.93,8.72-1.25,10.59a50.42,50.42,0,0,0-1.68,18.63c1,10.4,3.08,16.24,4.3,20.86s.88,7.6.33,12,.33,6.39,1.87,12,4.29,11.57,4.62,13.77-.66,2.42-1.21,3.75-3.52,4.73-3.63,6.16.88,2.54,3.63,3.31,4.74.77,6.06-1A5.36,5.36,0,0,0,77.7,263c-.11-1.32-.44-1.54,0-2.75a6,6,0,0,0,.66-4c-.33-2.09-.11-.22-1-4.51s.11-9.92.11-12.34a76.83,76.83,0,0,0-.55-11c-.55-2.87-.66-1.54-1-5.51s.22-4.4.22-7.27a23.12,23.12,0,0,0-.55-5.06s2.2-11.46,2.31-11.9,1.76-8,1.76-8a1.24,1.24,0,0,1,.89.66c.22.55,3.08,19.17,3.08,19.17a15.84,15.84,0,0,0-1,4.95c.11,2,1.32,7.6,1.32,7.6s-.88,3.53-1.65,9,.44,11.24.33,14.65a32.58,32.58,0,0,1-.77,6.61c-.33,1.54-.88,3.74-.33,5.4l.55,1.65a24,24,0,0,0-.33,4.51c.11,2,1,3.31,2.31,3.53a2.48,2.48,0,0,0,2.2-1,4.48,4.48,0,0,0,3.42.44c1.87-.55,3.19-1.33,2.75-2.87a11.47,11.47,0,0,0-2-4.29c-1.21-1.65-2-1.87-2.32-3.86a12.29,12.29,0,0,1,.45-6.05c.66-1.77,3.52-7.16,4.84-14.32s1.1-7.6.77-10.13a44,44,0,0,1,.44-10.69c.55-2.75,4.41-12.66,4.41-20.7A112.91,112.91,0,0,0,97,175.18,46.64,46.64,0,0,1,96.2,170a10.91,10.91,0,0,0,0-5c-.66-2.31-1.1-3.19-1.65-5.73a64.21,64.21,0,0,1-1-6.72v-4.29s2.09,5.07,3.09,8.59,1,5.62,2.09,8.92,3.41,9.47,3.85,10.79-.55,3.64-.11,7.16.88,9.58,1.65,10.47,1.66-.11,1.66-.11.33,1.76,1,2,1.54-.44,1.54-.44a.9.9,0,0,0,1.32.66,2.12,2.12,0,0,0,1.32-1.21s1.65.66,1.43-1.54-.77-5.18-.77-5.84.11-2.76.11-2.76a5.19,5.19,0,0,0,2,1c.88.11,1.76,1,2.42,0s.11-1.33-1.1-2.1a5.59,5.59,0,0,1-2.2-2.31c-.89-1.32-.12-1.65-2-3.3s-3.08-2.43-3.08-3.86,1.43-10.35.11-16.74-2-8-2.2-9-2.21-8.48-2.21-8.48,1.77-6.94-1.32-12.78-7.27-5.39-10.46-6.82-5.73-1.77-6.17-2.65a10,10,0,0,1-.66-2.42s2.86-4,3-5.29l.11-1.32s1.77-.66,2.21-4.07S88.29,102,88.29,102Z" style="fill:#bfbfbf"></path><path d="M114.55,185c.4-1.2-.4-.5-.9-1.1s-1.11-1.51-1.11-1.51c.51-.6-1.8-2.51-2.1-2.71s-2.11-1.9-2.11-1.9c-.3-1-1.51-1-1.81-2.51s-2.31-16.16-2.31-16.57.2-.6.3-1.5a2.14,2.14,0,0,0-1.58-2,.91.91,0,0,0,.08-.13,3.48,3.48,0,0,0,0-3c-.5-1.51-.81-2.81-1-3.51s-3.41-16.16-3.51-17.77,1.11-3.11.4-4.62a2.37,2.37,0,0,0-2.41-1.5c-.28.09-.21-.54-1.41-.77a1,1,0,0,0-1-.92,1,1,0,0,0-.72.31c-.49,0-1.88-.15-5.12-.15a16.52,16.52,0,0,0-2.44.18,6.64,6.64,0,0,0-3.68-2,.57.57,0,0,0,.19-.43v-.35a.58.58,0,0,0-.59-.59h-1v-.59h.36a.6.6,0,0,0,.6-.6.59.59,0,0,0-.6-.59h-.38l0-1.62a3.76,3.76,0,0,0,1-.35c1.07-.58,3-1.84,3.3-3a32,32,0,0,0,.39-4.27,4.12,4.12,0,0,0,1.55-3.2c.1-2.23,1.17-4.56.2-8S81.18,92,77.39,93.09A7.83,7.83,0,0,0,73,95.42c-1.65,1.94-1.88,2.35-1.75,4a28.34,28.34,0,0,1,.19,5,3.89,3.89,0,0,0,1.07,3.2,2.19,2.19,0,0,1,.78.88s-.1,3.68.58,4.56a13.83,13.83,0,0,0,3.49,3.1,4,4,0,0,0,.89.36l0,1.71H78a.58.58,0,0,0-.59.59.59.59,0,0,0,.59.6h.25V120h-.88a.59.59,0,0,0-.59.59V121a.62.62,0,0,0,.12.35,7.08,7.08,0,0,0-4.08,2,16.94,16.94,0,0,0-2.11-.13c-3.23,0-4.62.1-5.12.15a1,1,0,0,0-.71-.31,1,1,0,0,0-1,.91c-1.25.23-1.17.87-1.46.78a2.37,2.37,0,0,0-2.41,1.5c-.7,1.51.5,3,.4,4.62s-3.31,17.06-3.51,17.77-.5,2-1,3.51a3.48,3.48,0,0,0,0,3c0,.05.06.08.08.13a2.14,2.14,0,0,0-1.58,2c.1.9.3,1.1.3,1.5s-2,15.06-2.31,16.57-1.5,1.5-1.81,2.51c0,0-1.8,1.7-2.1,1.9s-2.61,2.11-2.11,2.71c0,0-.6.91-1.11,1.51s-1.3-.1-.9,1.1c0,0-2.51-.2-2,.61a1.88,1.88,0,0,0,2.51.2l0,0c.43.25.94,0,1.28-.47.5-.7,2.71-3.31,2.11-3.11.4-.6.9-1.4.9-1.4a5,5,0,0,1,0,2.51c-.4.9-1.2,2.51-.9,3a6.34,6.34,0,0,0-.3,1.7,29.24,29.24,0,0,0,0,4.13,12.87,12.87,0,0,0-.17,1.7c0,.9.31,2,.91.7a9.45,9.45,0,0,0,.5-3.51l-.11,0a7.66,7.66,0,0,0,.21-1.64c0-.9.2-2.81.2-2.81l0,0a1.06,1.06,0,0,0,.32-.67,17.07,17.07,0,0,1,.5-2.61,2.86,2.86,0,0,1,.93-1.2c-.07.74-.08,1.83-.12,2a3.93,3.93,0,0,0-.55,1.9,1,1,0,0,0,.29.58s-.05,0-.07.07-.49.11-.54.93a5.48,5.48,0,0,1-.33,1.85c-.22.49-.65,1.08,0,1.41a1.36,1.36,0,0,0-.54.87,6.23,6.23,0,0,0-.1,1.37,6.31,6.31,0,0,0-.23,2.06c.16.54.16,1.52.76.92s.71-2.83.71-2.83l-.22,0c0-.15.09-.34.17-.57a4.48,4.48,0,0,0,.38-1.58,1.08,1.08,0,0,0-.07-.18,1.19,1.19,0,0,0,.23-.58c.16-.81,0-1.09.33-1.52a3.14,3.14,0,0,0,.65-1.47l.11-.76a5.46,5.46,0,0,0,.32-2.12c.11-.76.33-2.45.33-2.45l0,0a9.9,9.9,0,0,0,1.14.28v0s.21,2.61.32,3.59a2.79,2.79,0,0,0,.2.89,1.79,1.79,0,0,0-.25.8,16.44,16.44,0,0,1-.16,2.17,1.56,1.56,0,0,0,0,.68s0,0-.06,0-.38,2.56,0,2.72.43.33.7-.38a9.46,9.46,0,0,0,.6-1.58l.06-.38-.24-.13a8.5,8.5,0,0,0,.45-1.39,5.57,5.57,0,0,0,.28-2.78l-.06-.43a2,2,0,0,0-.27,0,5.89,5.89,0,0,0-.11-1.9c-.21-1.12-.29-1.79-.32-2a.84.84,0,0,0,.4-.39c.53-1-.09-2.08-.33-2.68a10.22,10.22,0,0,0,.73-1.84,49.71,49.71,0,0,0,2.81-11,35.66,35.66,0,0,1,1-6.12,5.18,5.18,0,0,0,.9-2.91,2,2,0,0,0-.55-1.26c.23-.15.27-.38.45-.85a3.34,3.34,0,0,0,.4-2.21c-.1-1.4-1.2-1.1-1.2-1.1a27.29,27.29,0,0,1,.6-6.93c.8-3.21,1.91-6.82,2.11-8.43s1.5-7,1.5-7l2.51-.5s.92,1.07,1.48,1.85a2.65,2.65,0,0,0,.36.56l0,.06a2.7,2.7,0,0,0-1.64,2.17,1.79,1.79,0,0,0,.25.9A2.48,2.48,0,0,0,65.24,137a2.7,2.7,0,0,0,.35,1,2.55,2.55,0,0,0-.61,2.11,3.38,3.38,0,0,0,.8,1.66,3.8,3.8,0,0,0-.43,3.37,3,3,0,0,0,.49.81,1,1,0,0,0-.08.18,11.59,11.59,0,0,0-.28,3c-.21,2.29-.14,5.51,1.59,6.73a4.85,4.85,0,0,0,2.83,1,4.58,4.58,0,0,0,.83-.08,5.7,5.7,0,0,0,3.58-2.78,17.64,17.64,0,0,0,1.43-3.84,26.57,26.57,0,0,1,1.77-4.83l0-.06-.09,3.8h-.15a.6.6,0,0,0-.59.6v0a.6.6,0,0,0,.59.6h.12l0,.85H77a.6.6,0,0,0-.6.59V152a.6.6,0,0,0,.6.6h.34l0,1.58h-.6a.59.59,0,0,0-.59.59v.39a.6.6,0,0,0,.59.6h.56l0,1.36h-.93a.6.6,0,0,0-.6.6v.39a.59.59,0,0,0,.6.59h.89l0,1.08h-.86a.59.59,0,0,0-.6.59v.39a.6.6,0,0,0,.6.6h.82l0,1H75.91a.59.59,0,0,0-.59.6v.39c-3.23-2.23-6.86-3-8.89-1.34s-2.57,5.13-1.69,6.55,2.92,2.21,3,3.27a15.49,15.49,0,0,0,.11,2.1c-.81-.12-1.84-.12-2.19.58a3.63,3.63,0,0,0,0,2.64s-1.44.08-1.27,1.19a3.71,3.71,0,0,0,.93,1.87s1.62,14.23,2.22,19.68.51,12,0,12.78-2.64,1.88-2,4.43c.56,2.4,1.35,2.47,2.28,2.33a1.38,1.38,0,0,0-1.17,1.42,12.85,12.85,0,0,0,.17,3.24c.26.93,4.6,26.75,4.6,26.75s.17,5.53.68,6l-.51,2.56a.4.4,0,0,0-.13,0,1.17,1.17,0,0,0-.76,1.57L68.74,263a1.33,1.33,0,0,0,.26.29l-.06,0-.06.06a.27.27,0,0,0-.07-.09s-.18-.4-.44-.3-.29.47-.31.59-.2.16-.38.37-.36.39,0,.61a.49.49,0,0,0,.58-.29c0-.23,0-.06.14-.23a.77.77,0,0,1,.27-.17,3.44,3.44,0,0,0,0,.36c0,.18-.23.28-.41.64s-.38.64.2.83c.23.08.71-.25.71-.58s0-.08.13-.35.51-.31.53-.69-.2-.48-.2-.48a1.22,1.22,0,0,0-.15-.16h.09s1-1.16,1.61-2l.32.16a16.65,16.65,0,0,1-.85,1.51.64.64,0,0,0-.13.5.27.27,0,0,0-.16.06c-.38.26-.29.85-.29,1s-.26.32-.47.73-.44.74.24,1c.26.09.81-.29.81-.67s0-.09.15-.41.58-.35.61-.79a.52.52,0,0,0-.23-.55l-.07-.08a.69.69,0,0,0,.3-.42c.16-.4.44-1,.73-1.65l.27.07c-.2.69-.45,1.5-.56,1.79a.65.65,0,0,0,0,.33c-.33.27-.25.82-.25,1s-.26.32-.47.73-.44.74.24,1c.26.09.81-.29.81-.67s0-.08.15-.41.58-.35.61-.78-.15-.51-.21-.54a2.54,2.54,0,0,0,.33-.95c.1-.41.22-.88.33-1.29l.59,0c0,.73,0,1.73,0,2a.87.87,0,0,0,.11.48,2.84,2.84,0,0,1-.2.58,1,1,0,0,0-.07.73,1,1,0,0,0-.22.38c-.24.67-.18,1,.35,1.16a1.36,1.36,0,0,0,1.43-.29v-.18a.86.86,0,0,0,.79-.84,3.14,3.14,0,0,1,.11-.82,2.94,2.94,0,0,0-.17-1.17l-.11-.12a2.87,2.87,0,0,0,0-.31,6,6,0,0,0,0-2c.81-.37,1.21-.88,1-1.54a1.43,1.43,0,0,0-.73-.85,2.06,2.06,0,0,0,.12-1.29,9.18,9.18,0,0,1-.17-1.47,1.28,1.28,0,0,0,.17-.75,22.59,22.59,0,0,0-.6-3.83,19,19,0,0,0-.85-3s-2.22-23.86-2-24.88,2-.76,1.27-3A3.78,3.78,0,0,0,72.68,219a2.72,2.72,0,0,0,.24-.24c1.27-1.53,1.36-2.81.42-4.77s-1.11-1.7-1.53-3-2.73-26.84-2.73-27.86V181.6s1.54-.6,1-1.62-1.19-1.28-.85-2a4.3,4.3,0,0,1,1.6-1.3s-1.24.8.18,2.74a4.54,4.54,0,0,0,4.87,1.95c1.33-.44,2.92-2.74,2.92-2.74l.68-.17.68.17s1.59,2.3,2.92,2.74A4.54,4.54,0,0,0,88,179.46c.89-1.22.73-2,.48-2.39a2.81,2.81,0,0,1,1,1c.34.68-.34.94-.85,2s1,1.62,1,1.62v1.53c0,1-2.3,26.58-2.73,27.86s-.59,1-1.53,3-.85,3.24.43,4.77A1.75,1.75,0,0,0,86,219a3.78,3.78,0,0,0-1.51,2.23c-.77,2.22,1.1,2,1.28,3s-2,24.88-2,24.88a19,19,0,0,0-.85,3,22.59,22.59,0,0,0-.6,3.83,1.28,1.28,0,0,0,.17.75,9.18,9.18,0,0,1-.17,1.47,2.06,2.06,0,0,0,.12,1.29,1.43,1.43,0,0,0-.73.85c-.2.66.2,1.17,1,1.54a6,6,0,0,0,0,2c0,.11,0,.21,0,.31l-.11.12a2.94,2.94,0,0,0-.17,1.17,2.74,2.74,0,0,1,.11.82.86.86,0,0,0,.79.84v.18a1.36,1.36,0,0,0,1.43.29c.53-.17.59-.49.35-1.16A1,1,0,0,0,85,266a1,1,0,0,0-.07-.73,2.84,2.84,0,0,1-.2-.58.87.87,0,0,0,.11-.48c0-.3,0-1.3,0-2l.6,0,.32,1.29a2.74,2.74,0,0,0,.33.95c-.06,0-.24.16-.21.54s.46.46.61.78.15,0,.15.41.55.76.81.67c.68-.22.44-.55.24-1s-.47-.52-.47-.73.08-.74-.25-1a.65.65,0,0,0,0-.33c-.11-.29-.36-1.1-.56-1.79l.27-.07c.29.62.57,1.25.73,1.65a.69.69,0,0,0,.3.42l-.07.08a.52.52,0,0,0-.23.55c0,.44.46.47.61.79s.15,0,.15.41.55.76.81.67c.68-.22.44-.55.24-1s-.47-.53-.47-.73.09-.79-.29-1a.27.27,0,0,0-.16-.06.64.64,0,0,0-.13-.5,16.65,16.65,0,0,1-.85-1.51,2.39,2.39,0,0,0,.32-.16c.62.82,1.61,2,1.61,2h.09a1.22,1.22,0,0,0-.15.16s-.23.1-.2.48.4.41.53.69.13,0,.13.35.48.66.71.58c.58-.19.38-.48.2-.83s-.41-.46-.41-.64a3.44,3.44,0,0,0,0-.36.77.77,0,0,1,.27.17c.13.17.09,0,.14.23a.49.49,0,0,0,.58.29c.37-.22.18-.39,0-.61s-.35-.25-.38-.37-.05-.48-.31-.59-.44.3-.44.3a.27.27,0,0,0-.07.09l-.06-.06-.06,0A1.33,1.33,0,0,0,90,263L88.05,261a1.17,1.17,0,0,0-.76-1.57.4.4,0,0,0-.13,0l-.51-2.56c.51-.43.68-6,.68-6s4.34-25.82,4.6-26.75a12.85,12.85,0,0,0,.17-3.24,1.38,1.38,0,0,0-1.17-1.42c.93.14,1.72.07,2.28-2.33.59-2.55-1.54-3.66-2-4.43s-.59-7.33,0-12.78,2.22-19.68,2.22-19.68a3.71,3.71,0,0,0,.93-1.87c.17-1.11-1.27-1.19-1.27-1.19a3.63,3.63,0,0,0,0-2.64c-.31-.62-1.15-.69-1.9-.62a16.57,16.57,0,0,0,.1-2.06c.09-1.06,2.13-1.86,3-3.27s.36-4.87-1.68-6.55-5.63-.9-8.84,1.3V163a.6.6,0,0,0-.6-.6H81.52v-1h1.22a.59.59,0,0,0,.59-.6v-.39a.58.58,0,0,0-.59-.59H81.48l0-1.08h1.27a.58.58,0,0,0,.59-.59v-.39a.59.59,0,0,0-.59-.6h-1.3l0-1.36h.91a.59.59,0,0,0,.59-.6v-.39a.58.58,0,0,0-.59-.59h-.94l0-1.58H82a.6.6,0,0,0,.59-.6v-.39A.6.6,0,0,0,82,151h-.7l0-.85h.43a.59.59,0,0,0,.59-.6v0a.59.59,0,0,0-.59-.6h-.45l-.06-3.24a31.15,31.15,0,0,1,1.52,4.33,16.66,16.66,0,0,0,1.43,3.84,5.66,5.66,0,0,0,3.57,2.78,4.76,4.76,0,0,0,.83.08,4.88,4.88,0,0,0,2.84-1c1.72-1.22,1.79-4.44,1.59-6.73a11.8,11.8,0,0,0-.29-3s0,0,0-.06a3,3,0,0,0,.59-.93,3.75,3.75,0,0,0-.4-3.32,3.42,3.42,0,0,0,.85-1.71,2.55,2.55,0,0,0-.61-2.11,2.7,2.7,0,0,0,.35-1,2.53,2.53,0,0,0-1.55-2.59,1.81,1.81,0,0,0,.2-.82,2.49,2.49,0,0,0-1.36-2v0a14.72,14.72,0,0,1,1.91-2.61l2.51.5s1.3,5.42,1.5,7,1.31,5.22,2.11,8.43a26.78,26.78,0,0,1,.6,6.93s-1.1-.3-1.2,1.1a3.34,3.34,0,0,0,.4,2.21c.18.47.22.7.45.85a2,2,0,0,0-.55,1.26,5.18,5.18,0,0,0,.9,2.91,34.31,34.31,0,0,1,1,6.12,50.28,50.28,0,0,0,2.81,11,10.22,10.22,0,0,0,.73,1.84c-.23.6-.86,1.72-.33,2.68a.88.88,0,0,0,.4.39c0,.24-.1.91-.32,2a5.85,5.85,0,0,0-.1,1.9,2.14,2.14,0,0,0-.28,0l0,.43a5.4,5.4,0,0,0,.27,2.78,8.5,8.5,0,0,0,.45,1.39l-.23.13,0,.38a10.46,10.46,0,0,0,.6,1.58c.27.71.38.54.71.38s-.06-2.72-.06-2.72,0,0-.06,0a1.73,1.73,0,0,0,0-.68,15,15,0,0,1-.17-2.17,1.79,1.79,0,0,0-.25-.8,2.79,2.79,0,0,0,.2-.89c.11-1,.33-3.59.33-3.59s0,0,0,0a9.9,9.9,0,0,0,1.14-.28l0,0s.22,1.69.33,2.45a5.46,5.46,0,0,0,.33,2.12l.1.76a3.14,3.14,0,0,0,.66,1.47c.27.43.16.71.32,1.52a1.29,1.29,0,0,0,.23.58.94.94,0,0,0-.06.18,4.26,4.26,0,0,0,.38,1.58c.07.23.12.42.16.57l-.22,0s.11,2.23.71,2.83.6-.38.76-.92a6,6,0,0,0-.23-2.06,7,7,0,0,0-.09-1.37,1.35,1.35,0,0,0-.55-.87c.65-.33.22-.92,0-1.41a5.26,5.26,0,0,1-.32-1.85c-.06-.82-.55-.93-.55-.93l-.07-.07a1,1,0,0,0,.29-.58,3.82,3.82,0,0,0-.55-1.9c0-.17,0-1.26-.12-2a2.86,2.86,0,0,1,.93,1.2,17.07,17.07,0,0,1,.5,2.61,1.11,1.11,0,0,0,.32.67l0,0s.2,1.91.2,2.81a7.14,7.14,0,0,0,.22,1.64l-.12,0a9.32,9.32,0,0,0,.51,3.51c.6,1.3.9.2.9-.7a12.87,12.87,0,0,0-.17-1.7,27.93,27.93,0,0,0,0-4.13,6.34,6.34,0,0,0-.3-1.7c.3-.5-.51-2.11-.91-3a5,5,0,0,1,0-2.51s.51.8.91,1.4c-.61-.2,1.6,2.41,2.1,3.11.34.48.86.72,1.28.47l0,0a1.88,1.88,0,0,0,2.51-.2C117.06,184.84,114.55,185,114.55,185Zm-58.3-16.26c-.71,2.61-2.21,6.93-2.21,6.93a82.84,82.84,0,0,1,1.1-8.43c.91-5.12,1.41-7,1.91-8.13l.5,1.5A76.16,76.16,0,0,1,56.25,168.78ZM77.08,164l0,.66c-.28-.21-.57-.43-.9-.66ZM73,252.05l.34,2.47c-.17-.68-1.79-9.8-1.79-9.8l-2.64-15.93a24.74,24.74,0,0,1-.17-6,27.46,27.46,0,0,1,.77,2.73c.17.94.68,3.58,1.7,9.63S73,252.05,73,252.05Zm3.43-73.65c-.44.8-1,1-2.3.09s-1-2.57-.45-2.83,3.19.62,3.19.62A5.33,5.33,0,0,1,76.43,178.4Zm-2.92-4.69a4.25,4.25,0,0,1-.36-1.77c0-1.06.53-1.95,2.13-.8S78.91,176,78.91,176Zm10.8,4.78c-1.33.89-1.86.71-2.3-.09a5.22,5.22,0,0,1-.45-2.12s2.66-.89,3.19-.62S85.63,177.61,84.31,178.49Zm5.49,50.3-2.64,15.93s-1.62,9.12-1.79,9.8l.34-2.47s.77-10.9,1.79-17,1.53-8.69,1.7-9.63a27.46,27.46,0,0,1,.77-2.73A24.74,24.74,0,0,1,89.8,228.79Zm-4.52-56.85a4.35,4.35,0,0,1-.35,1.77l-5.4,2.3s2-3.72,3.63-4.87S85.28,170.88,85.28,171.94Zm-2.45-8-1.26.93,0-.93Zm9.37-19.3a.67.67,0,0,1-.06.12A6.54,6.54,0,0,0,91,143.19a6.82,6.82,0,0,0,1-.61A2.51,2.51,0,0,1,92.2,144.66Zm-25.55-2.13a6.64,6.64,0,0,0,.93.58,6.75,6.75,0,0,0-1.16,1.52A2.57,2.57,0,0,1,66.65,142.53Zm19-10.1a24.93,24.93,0,0,1-4,.6c-.06-.61-.11-1.2-.14-1.73a19.43,19.43,0,0,0,2.89-.51l.8.13C85.4,131.39,85.55,131.91,85.69,132.43Zm5.6,13.25a4.7,4.7,0,0,1-2.08.6,7.37,7.37,0,0,1-6.5-3l0,0a10.42,10.42,0,0,0,5.78.76,13.3,13.3,0,0,0,1.35-.36A5.49,5.49,0,0,1,91.29,145.68Zm-22.55-2.06a11.09,11.09,0,0,0,1.51.42,8,8,0,0,0,1.54.14,11.38,11.38,0,0,0,4.11-.85,7.38,7.38,0,0,1-6.48,2.95,4.58,4.58,0,0,1-2.21-.68A5.61,5.61,0,0,1,68.74,143.62Zm4.86-12.76.46-.07a18,18,0,0,0,3.07.53c0,.53-.09,1.11-.15,1.72a25.53,25.53,0,0,1-3.84-.54C73.3,131.93,73.45,131.37,73.6,130.86Zm10.76-1.24c-.92-.13-1.88-.22-2.85-.27a1.55,1.55,0,0,1,.09-.58c0-.05.07-.12.11-.18a10.08,10.08,0,0,0,2.13-.64,9.62,9.62,0,0,1,.7.68,4.47,4.47,0,0,1,.31.85ZM74,129.56a5.24,5.24,0,0,1,.33-.93c.11-.13.34-.34.6-.6a9.75,9.75,0,0,0,2.1.59l.09.15a1.3,1.3,0,0,1,.1.57c-1,0-2,.15-3,.28ZM75.83,127l.39,0a2.47,2.47,0,0,0,.1.29l-.56-.17Zm6.65,0,.45,0a4.51,4.51,0,0,1-.52.17Zm.16-1.14h0a2.05,2.05,0,0,0-.07-.34c.22-.11.51-.23.85-.36A1.29,1.29,0,0,0,82.64,125.88ZM84,125l.54-.15-.28.1Zm-7.87.7a2.65,2.65,0,0,0-1.49-.75c-.13-.06-.27-.1-.41-.15a11.75,11.75,0,0,1,2,.68A1.42,1.42,0,0,0,76.11,125.67Zm5.75-1.09a1.84,1.84,0,0,0-1-.21v-.32c.62,0,1.21.11,1.77.2C82.3,124.37,82.06,124.48,81.86,124.58Zm-3.78-.19a2,2,0,0,0-1.15.14,7.21,7.21,0,0,0-.71-.32,17.71,17.71,0,0,1,1.87-.18Zm-1.61,15.83a1.91,1.91,0,0,0,.12.77c.12.2.26.39.39.58a10.49,10.49,0,0,1-6.5,1.33c-.21,0-.39-.09-.58-.14.18-.12.38-.24.58-.35A23.89,23.89,0,0,1,76.47,140.22ZM67,146.84s0,0,0-.05a6.06,6.06,0,0,0,2.38.64l.77,0a8.31,8.31,0,0,0,6.43-3.11l-.66.85a25.11,25.11,0,0,1-3.05,3.49,5.1,5.1,0,0,1-4,.76,2.13,2.13,0,0,1-1.55-1,3.54,3.54,0,0,1-.31-1.4Zm15.66-1.64c-.48-.61-.93-1.18-1.33-1.66l-.1-.14h0c.2.19.4.38.6.6l.06.08a8.59,8.59,0,0,0,6.69,3.38l.77,0a6.29,6.29,0,0,0,2.23-.57.78.78,0,0,0,0,.14,3.41,3.41,0,0,1-.31,1.4,2.13,2.13,0,0,1-1.55,1,5.07,5.07,0,0,1-4-.76A24.47,24.47,0,0,1,82.61,145.2Zm5.62-2.3a10.42,10.42,0,0,1-6.5-1.34c.13-.18.26-.38.38-.57a1.81,1.81,0,0,0,.13-.72A23.51,23.51,0,0,1,88,142.41a6.82,6.82,0,0,1,.64.39ZM86,133.54v.05l-.29,0Zm-5.2-10.65v-.55a8.57,8.57,0,0,1,3.2,1A20.13,20.13,0,0,0,80.8,122.89Zm-2.67-.59v.57a20.77,20.77,0,0,0-3.57.46A8.85,8.85,0,0,1,78.13,122.3Zm-10.84,2.42a7.08,7.08,0,0,0-.66-.3c.74,0,1.89-.07,3.64-.08A18.9,18.9,0,0,0,67.29,124.72Zm5.24,10a40.87,40.87,0,0,1,4.26.41c-.05.49-.09,1-.13,1.47l-1.13-.09c-.31,0-.67-.09-1-.12-.85-.11-1.62-.25-2.32-.4C72.27,135.65,72.4,135.22,72.53,134.74Zm-4,2.9a2.54,2.54,0,0,0,3-.24c.63,0,1.27,0,1.87.07A25.84,25.84,0,0,0,69,139a5.91,5.91,0,0,1-1.69-.95A5.19,5.19,0,0,1,68.55,137.64Zm8,.29c0,.21,0,.41,0,.6a10.85,10.85,0,0,1-5.71,1A39.68,39.68,0,0,1,76.55,137.93Zm-6.11,2.69a7.35,7.35,0,0,0,.82.1c-.46.21-.91.43-1.35.68a10.46,10.46,0,0,0-1.37.89,6.15,6.15,0,0,1-1.23-.73l.08-.1A5.52,5.52,0,0,1,69,140.28,11,11,0,0,0,70.44,140.62Zm-1.92,10a6.19,6.19,0,0,0,1.37.15,6,6,0,0,0,3.66-1.14l.3-.27c-1.25,2.84-2.38,4.72-4.9,3.73a3.85,3.85,0,0,1-2.26-3.44A3.71,3.71,0,0,0,68.52,150.58Zm16.41-1a6,6,0,0,0,3.65,1.14,6.28,6.28,0,0,0,1.38-.15,3.63,3.63,0,0,0,1.82-1,3.86,3.86,0,0,1-2.25,3.44c-2.52,1-3.65-.89-4.91-3.73Zm5.1-7.23a12.47,12.47,0,0,0-1.47-1c-.43-.24-.87-.46-1.32-.67a5.9,5.9,0,0,0,1-.11,10.27,10.27,0,0,0,1.35-.32,5.39,5.39,0,0,1,1.61,1.16l.12.14A6.28,6.28,0,0,1,90,142.36Zm-7.84-3.83,0-.58a38.15,38.15,0,0,1,5.69,1.56A11,11,0,0,1,82.19,138.53Zm3.07-1.05c.66,0,1.37-.09,2.07-.09a2.54,2.54,0,0,0,2.94.28,5.27,5.27,0,0,1,1.18.41,6.08,6.08,0,0,1-1.75,1A26,26,0,0,0,85.26,137.48Zm-3.21-.88c0-.47-.09-1-.13-1.45a37.61,37.61,0,0,1,4.4-.41c.13.44.24.85.34,1.2A29.08,29.08,0,0,1,82.05,136.6ZM68,132.85c0,.34,0,.72-.07,1.11l-.17,0a.82.82,0,0,1-.16-.44A1.06,1.06,0,0,1,68,132.85Zm-.57,2.53.06,0,.44.3a6.39,6.39,0,0,0,.11.94,5.51,5.51,0,0,0-1.4.53l-.11.07a1.51,1.51,0,0,1-.12-.38C66.28,136.11,66.88,135.65,67.4,135.38Zm-1.28,4.49a1.35,1.35,0,0,1,.23-1,6,6,0,0,0,1.33.88,5.7,5.7,0,0,0-1.16,1l0,0A2.12,2.12,0,0,1,66.12,139.87Zm4.38,15.66a3.47,3.47,0,0,1-2.76-.7,3.08,3.08,0,0,1-1-2,4.51,4.51,0,0,0,1.79,1.28,4.78,4.78,0,0,0,1.7.35c1.83,0,3-1.39,3.84-2.92a8.69,8.69,0,0,1-.73,1.72A4.55,4.55,0,0,1,70.5,155.53Zm20.24-.7a3.48,3.48,0,0,1-2.77.7,4.53,4.53,0,0,1-2.82-2.25,9.28,9.28,0,0,1-.74-1.72c.85,1.53,2,2.92,3.85,2.92a4.69,4.69,0,0,0,1.69-.35,4.54,4.54,0,0,0,1.8-1.28A3.08,3.08,0,0,1,90.74,154.83Zm1.36-14.14a5.52,5.52,0,0,0-1.11-.93,6.4,6.4,0,0,0,1.37-.91,1.35,1.35,0,0,1,.23,1,2.06,2.06,0,0,1-.42.91Zm.23-3.88a1.51,1.51,0,0,1-.12.38l-.11-.07a5.26,5.26,0,0,0-1.27-.5,6.82,6.82,0,0,0,.14-1.19l.17-.13.17.08C91.83,135.65,92.43,136.11,92.33,136.81ZM91,133.57a.61.61,0,0,1,0,.13c0-.13,0-.26,0-.38A.74.74,0,0,1,91,133.57Zm-2.39-9.23c1.74,0,2.9,0,3.65.08a7.08,7.08,0,0,0-.66.3A19.15,19.15,0,0,0,88.58,124.34Zm14,44.44a74.42,74.42,0,0,1-1.31-8.13l.5-1.5c.51,1.1,1,3,1.91,8.13a82.84,82.84,0,0,1,1.1,8.43S103.31,171.39,102.61,168.78Z" style="fill:#fff"></path><path d="M105.16,183.7c0,.55,0,2.23,0,3.16a.86.86,0,0,0,.11.43,11,11,0,0,0,.11,2.18c.16.65.32,1.95.7,1.95a11.6,11.6,0,0,0,.17,2,2,2,0,0,0,.19.53h0a2,2,0,0,0,0,1.36c.27.71.76,1.47,1.09.54a4.76,4.76,0,0,0,0-2.23l-.09,0a3.16,3.16,0,0,0,0-.84c0-.33-.38-1.42-.38-1.42h-.15c.18,0,.31-.17.26-.48-.11-.71-.33-.71-.38-1.47a14.65,14.65,0,0,0-.55-2.29c.44-.16.28-.49.17-1.19s-.17-3.92-.17-3.92l-1.08.27S105.11,183.16,105.16,183.7Z" style="fill:#fff"></path><path d="M52.5,186c-.11.7-.28,1,.16,1.19a13.86,13.86,0,0,0-.54,2.29c-.06.76-.28.76-.39,1.47,0,.31.08.43.27.48h-.16s-.32,1.09-.38,1.42a3.65,3.65,0,0,0,0,.84l-.09,0a4.76,4.76,0,0,0,0,2.23c.33.93.82.17,1.09-.54a2,2,0,0,0,0-1.36h0a2,2,0,0,0,.2-.53,12.31,12.31,0,0,0,.16-2c.38,0,.54-1.3.71-1.95a12.74,12.74,0,0,0,.11-2.18,1,1,0,0,0,.1-.43c.06-.93,0-2.61,0-3.16s.06-1.36.06-1.36l-1.09-.27S52.61,185.28,52.5,186Z" style="fill:#fff"></path></g><g id="freepik--Plant--inject-2"><path d="M396.61,352.54S407.48,369.9,412,386.69c3.23,11.94,3.38,35.63,3.38,35.63s.21-70.29,16.39-97.51" style="fill:none;stroke:#263238;stroke-linecap:round;stroke-linejoin:round"></path><path d="M440.52,264s-15.66,25.16-20,51.35-5.39,91.15-5.39,91.15c-.26-13.61-2.31-63.42-6.67-85a161.64,161.64,0,0,0-12.33-37.23" style="fill:none;stroke:#263238;stroke-linecap:round;stroke-linejoin:round"></path><path d="M399.5,291.88s13.11.61,19.23-9.23,2.09-19.24-3.66-19.93-8.25,6.43-10.38,3,6.12-9.84-3.13-15.75-13.56,2.57-16.49-.46-.82-11-6.93-14.42-8.95.85-12.34,1-14-5.59-18.26-1.08,5.91,15.4,1.14,15.72-6.71,9.63-2.84,15.65,16.37,8.41,13.93,11.55-14.36,3-9.5,10,21.35,7.5,23.72,8.33-7.6,2.66-5.91,9.25,15.38,7.4,24.19,3.16S399.5,291.88,399.5,291.88Z" style="fill:#92E3A9"></path><path d="M361.68,247.5s27.84,18.2,37.82,44.38" style="fill:none;stroke:#263238;stroke-linecap:round;stroke-linejoin:round"></path><polyline points="360.31 260.25 378.98 262.07 374.42 246.59" style="fill:none;stroke:#263238;stroke-linecap:round;stroke-linejoin:round"></polyline><polyline points="375.33 281.65 394 281.65 395.37 264.8" style="fill:none;stroke:#263238;stroke-linecap:round;stroke-linejoin:round"></polyline><path d="M437.89,269.59s-10.64.49-15.61-7.5-1.7-15.62,3-16.18,6.7,5.22,8.43,2.45-5-8,2.54-12.79,11,2.08,13.39-.38.66-8.88,5.62-11.7,7.27.69,10,.81,11.39-4.54,14.83-.89-4.8,12.5-.92,12.77,5.45,7.81,2.3,12.71-13.29,6.82-11.31,9.37,11.66,2.4,7.71,8.11-17.32,6.08-19.25,6.76,6.17,2.16,4.8,7.5-12.49,6-19.64,2.58S437.89,269.59,437.89,269.59Z" style="fill:#92E3A9"></path><path d="M468.59,233.56s-22.6,14.77-30.7,36" style="fill:none;stroke:#263238;stroke-linecap:round;stroke-linejoin:round"></path><polyline points="469.7 243.91 454.55 245.38 458.25 232.82" style="fill:none;stroke:#263238;stroke-linecap:round;stroke-linejoin:round"></polyline><polyline points="457.51 261.28 442.36 261.28 441.25 247.6" style="fill:none;stroke:#263238;stroke-linecap:round;stroke-linejoin:round"></polyline><path d="M403.08,364.87s8.64.4,12.67-6.08,1.38-12.68-2.41-13.13-5.44,4.23-6.84,2,4-6.48-2.06-10.38-8.93,1.69-10.86-.3-.54-7.21-4.56-9.5-5.9.56-8.13.66-9.23-3.68-12-.72,3.9,10.14.76,10.35-4.43,6.35-1.87,10.32,10.77,5.53,9.17,7.6-9.45,1.95-6.26,6.58,14.06,4.93,15.62,5.48-5,1.76-3.89,6.09,10.13,4.88,15.94,2.09S403.08,364.87,403.08,364.87Z" style="fill:#92E3A9"></path><path d="M378.18,335.64s18.33,12,24.9,29.23" style="fill:none;stroke:#263238;stroke-linecap:round;stroke-linejoin:round"></path><polyline points="377.28 344.04 389.57 345.24 386.57 335.04" style="fill:none;stroke:#263238;stroke-linecap:round;stroke-linejoin:round"></polyline><polyline points="387.17 358.13 399.46 358.13 400.36 347.04" style="fill:none;stroke:#263238;stroke-linecap:round;stroke-linejoin:round"></polyline><path d="M428.68,331.07s-13-1.75-17.26-12.53,1.38-19.31,7.16-19,7,7.8,9.68,4.83-4.26-10.78,5.89-14.94S447,294.42,450.46,292s2.76-10.62,9.39-12.94,8.66,2.43,12,3.18,14.8-3,18.17,2.2-8.57,14.09-3.93,15.26,4.88,10.68,0,15.91-17.6,5.35-15.77,8.88,13.6,5.47,7.57,11.52-22.35,3.56-24.83,3.95,7,4,4.16,10.16-16.46,4.53-24.37-1.21S428.68,331.07,428.68,331.07Z" style="fill:#92E3A9"></path><path d="M473.83,294.17s-30.65,12.92-45.15,36.9" style="fill:none;stroke:#263238;stroke-linecap:round;stroke-linejoin:round"></path><polyline points="472.9 306.95 454.21 305.4 461.45 290.99" style="fill:none;stroke:#263238;stroke-linecap:round;stroke-linejoin:round"></polyline><polyline points="454.29 325.32 435.92 321.98 437.59 305.16" style="fill:none;stroke:#263238;stroke-linecap:round;stroke-linejoin:round"></polyline><path d="M394.09,389.33c-.93,2.51-1.46,23.8-1.46,26.63,0,18.73,10.33,23.07,23.08,23.07s23.07-3.34,23.07-23.07c0-2.83-.53-24.12-1.46-26.63Z" style="fill:#263238;stroke:#263238;stroke-linecap:round;stroke-linejoin:round"></path></g><g id="freepik--character-1--inject-2"><path d="M97.51,218.78s-3.3,13.8-2.55,18,6.6,7.35,10.05,6,8.55-7.65,8.55-7.65l-3-12.15Z" style="fill:#fff;stroke:#263238;stroke-linejoin:round"></path><path d="M126.57,414.09s-2.64,6.58-4.83,8.78-8.57,6.37-9,9,3.3,4.18,7.47,5.28,9.88-1.1,11.86-2,10.32-1.58,12.52-2.46.44-16,.44-16Z" style="fill:#fff;stroke:#263238;stroke-linejoin:round"></path><path d="M146.77,408.87s-1.31,11.86-2,16.69-1.32,9.83,2,11.15,14.5,2.41,17.57.66,2.64-7.42.66-14-3.73-11.42-3.73-11.42S157.1,405.36,146.77,408.87Z" style="fill:#fff;stroke:#263238;stroke-linejoin:round"></path><path d="M113.39,274.46s.88,60.18,2.86,77.31,10.1,56.39,10.1,56.39-2.2,1.53-2,3.73,1.1,5.93,1.1,5.93,6.15,2.41,9.66,2.63,10.55-2,10.55-2l-2.2-139.19Z" style="fill:#92E3A9;stroke:#263238;stroke-linejoin:round"></path><path d="M143.48,279.29l1.32,129.09-.88,3.95,1.76,6.15s5.68-4.88,9-4,9.49,4.49,9.49,4.49a112.17,112.17,0,0,0,3-11.2c.44-3.07-1.1-10.32-.44-15.15S173,350,173,350l2.58-73.79Z" style="fill:#92E3A9;stroke:#263238;stroke-linejoin:round"></path><path d="M137.41,165.08s-27.9,7.5-28.5,8.4-17,45.9-17,45.9l22.35,7.5L109.51,277a83.2,83.2,0,0,0,36,6.9c19.79-.9,32.39-3.75,32.39-3.75l1.95-58.64,19.58,2.07s-13.13-47.37-14.63-49.32-25.5-8.1-25.5-8.1Z" style="fill:#92E3A9;stroke:#263238;stroke-linejoin:round"></path><line x1="177" y1="218.63" x2="179.85" y2="190.13" style="fill:none;stroke:#263238;stroke-linejoin:round"></line><line x1="114.31" y1="205.28" x2="114.31" y2="183.83" style="fill:none;stroke:#263238;stroke-linejoin:round"></line><polyline points="131.71 167.03 144.61 223.88 163.96 167.78" style="fill:none;stroke:#263238;stroke-linejoin:round"></polyline><rect x="138.76" y="224.48" width="11.85" height="21" style="fill:#fff;stroke:#263238;stroke-linejoin:round"></rect><path d="M136.36,153.68l.15,13.95s6,11.1,7.35,13.2c1.65,2.55,4.95,7,4.95,7l11.54-20.1.3-9.6Z" style="fill:#fff;stroke:#263238;stroke-linejoin:round"></path><path d="M139.77,121.39s-4.25,3.15-4.73,7.89a84.4,84.4,0,0,0-.24,10.44s-1.7-2.18-3,1a6.49,6.49,0,0,0,1.82,7.17,10.76,10.76,0,0,1,2.07,1.58s.12,9.22,4,13.72,10,5.34,16.15,3.52c4.87-1.43,6.32-7.77,7-13.24s1.57-18.45,1.09-24-6.33-10.37-11.42-11.05C144.39,117.26,139.77,121.39,139.77,121.39Z" style="fill:#fff;stroke:#263238;stroke-linejoin:round"></path><path d="M151.67,151.62a21.29,21.29,0,0,0-15.12,4.66,16.61,16.61,0,0,0,3.1,6.88c3.89,4.49,10,5.34,16.15,3.52,3.86-1.13,5.56-5.35,6.47-9.77A16,16,0,0,0,151.67,151.62Z" style="fill:#263238;stroke:#263238;stroke-linejoin:round"></path><path d="M163.57,139.36s2.07-.73,2.19,1.94-2.43,5.59-2.43,5.59Z" style="fill:none;stroke:#263238;stroke-linejoin:round"></path><path d="M152.52,118.35c-8.13-1.09-12.75,3-12.75,3s-4.25,3.15-4.73,7.89a84.4,84.4,0,0,0-.24,10.44l-.05-.05.41.9,2.79-3.16c1-1.09-.36-3.88,0-6.31s3.52-5.71,5.71-5.95,2.06,1.94,5.59,2.79,8.37-.72,9.59-2.18,3.52,1.09,3.4,6.07-.61,5.34-.12,6.56a17.79,17.79,0,0,0,1.7,2.91s0-.15.06-.41a98.6,98.6,0,0,0,.06-11.49C163.45,123.81,157.61,119,152.52,118.35Z" style="fill:#263238;stroke:#263238;stroke-linejoin:round"></path><path d="M147.06,143.24c0,.81-.49,1.46-1.09,1.46s-1.1-.65-1.1-1.46a1.31,1.31,0,0,1,1.1-1.45C146.57,141.79,147.06,142.44,147.06,143.24Z" style="fill:#263238"></path><path d="M158.72,143.24c0,.81-.49,1.46-1.1,1.46s-1.09-.65-1.09-1.46.49-1.45,1.09-1.45A1.31,1.31,0,0,1,158.72,143.24Z" style="fill:#263238"></path><circle cx="144.72" cy="143.52" r="5.07" style="fill:none;stroke:#263238;stroke-linejoin:round"></circle><path d="M163.51,143.52a5.07,5.07,0,1,1-5.07-5.07A5.07,5.07,0,0,1,163.51,143.52Z" style="fill:none;stroke:#263238;stroke-linejoin:round"></path><polyline points="152.4 141.06 152.53 153.44 146.7 150.53" style="fill:#fff;stroke:#263238;stroke-linejoin:round"></polyline><path d="M149.79,143.52s2.13-1.79,3.58,0" style="fill:none;stroke:#263238;stroke-linejoin:round"></path><line x1="139.65" y1="143.52" x2="135.16" y2="140.57" style="fill:none;stroke:#263238;stroke-linejoin:round"></line><path d="M145.36,154.05s1.82,3,6.8,2.19" style="fill:none;stroke:#fff;stroke-linejoin:round"></path><path d="M137.11,209.78l14-6.66a1,1,0,0,1,1.32.36h0A1,1,0,0,1,152,205l-14.59,6.26Z" style="fill:#fff;stroke:#263238;stroke-linejoin:round"></path><path d="M156.13,221.59s-9.93-13.24-10.57-13.75-10.26.51-10.26.51l-2.24,6.45,4.16,8.65,5.29-1.86a19.27,19.27,0,0,0,8.82,6.27c5.44,1.7,25.48,9.51,33.33,9.68s11.54-1.87,13.14-5.6.8-7.47-5.45-10.52-19.23,0-25.64,0S156.13,221.59,156.13,221.59Z" style="fill:#fff;stroke:#263238;stroke-linejoin:round"></path><line x1="142.51" y1="221.59" x2="149.4" y2="220.57" style="fill:none;stroke:#263238;stroke-linejoin:round"></line><path d="M136.42,221.08s6.89-4.75,7.53-4.75,4.33.17,4.33.17" style="fill:none;stroke:#263238;stroke-linejoin:round"></path><polyline points="134.82 218.36 139.95 212.59 144.44 211.58" style="fill:none;stroke:#263238;stroke-linejoin:round"></polyline><polyline points="133.38 215.99 137.38 210.05 142.83 208.86" style="fill:none;stroke:#263238;stroke-linejoin:round"></polyline><polygon points="99.01 205.28 116.27 238.83 148.21 240.38 130.49 206.05 99.01 205.28" style="fill:#263238;stroke:#263238;stroke-linejoin:round"></polygon><path d="M105.16,225.68s.45,2.85,2.25,3,8.7-1.05,9.15-2.4a1.25,1.25,0,0,0-1.65-1.65C114,224.93,106.06,224.33,105.16,225.68Z" style="fill:#fff;stroke:#263238;stroke-linejoin:round"></path><path d="M107.41,228.68a5.25,5.25,0,0,0,1.5,2.7c1.2,1.05,7.2-.3,9.15-1.2s1.8-2.1,1.2-2.4-4.05,0-4.05,0Z" style="fill:#fff;stroke:#263238;stroke-linejoin:round"></path><path d="M110.26,231.83s.6,2.1,1.95,2.7,5.1-1.05,6.9-1.95-1-2.4-1-2.4S111.61,232.28,110.26,231.83Z" style="fill:#fff;stroke:#263238;stroke-linejoin:round"></path><path d="M113.56,235.13s-.9,1.05,1.35,1.2,4.2-3.75,4.2-3.75Z" style="fill:#fff;stroke:#263238;stroke-linejoin:round"></path></g><g id="freepik--character-2--inject-2"><path d="M300.6,135.46s-.16,7.93.65,9.71,3.56,3.88,3.07,6.31-1.78,5.66-1.13,5.83,4-.81,4-.81,7.77,10,8.91,9.55,7.77-7,7.77-7l5.5,13.75,13.11-16.34-10.2-12a46.74,46.74,0,0,0-5.18-9.06c-2.75-3.4-11.81-7.13-18.45-5.67S300.6,135.46,300.6,135.46Z" style="fill:#fff;stroke:#263238;stroke-linejoin:round"></path><path d="M311.6,157.31a8.79,8.79,0,0,0,3.24-4.54" style="fill:none;stroke:#263238;stroke-linejoin:round"></path><path d="M304.48,145.81a3.48,3.48,0,0,1,3.56-2.75" style="fill:none;stroke:#263238;stroke-linejoin:round"></path><path d="M308.66,147.93c.4.8.31,1.66-.21,1.92s-1.26-.17-1.67-1-.31-1.66.21-1.92S308.25,147.13,308.66,147.93Z" style="fill:#263238"></path><path d="M327,145.49a2.47,2.47,0,0,1-.48,2.1,5.39,5.39,0,0,1-2.76,1.3l.33,3.56" style="fill:none;stroke:#263238;stroke-linejoin:round"></path><path d="M321.82,116.64s-3.13-3.5,1.56-7,14.68,4.21,14.68,4.21l-2.54.35s8.22,2.45,7.43,8.94-7.24,3.86-11.94,1.4S321.82,116.64,321.82,116.64Z" style="fill:#263238;stroke:#263238;stroke-linejoin:round"></path><path d="M300.76,137.24s-4.05-3.73-3.72-8.1,6.15-12,17-13.27,23.15,7.28,24.77,16.19A17.77,17.77,0,0,1,334.43,147L327,145.49s-.16-6.15-2.43-8.09-4.69,2.1-4.69,2.1-5.67.81-8.26-.81.65-4.69-2.75-4.37S300.76,137.24,300.76,137.24Z" style="fill:#263238;stroke:#263238;stroke-linejoin:round"></path><path d="M338.44,317s4.49,16.16,6,19.75,28,71.28,28,71.28-9.87,11.07-15,13.16-7.48,3.29-6.28,4.79,10.17,1.79,17,1.79,9.28-3,17.06-5.08c0,0,4.19-1.8,5.38-3S382.64,403,382.64,403s-7.39-39-8.29-48.54-5.09-19.75-6.58-22.74-3-6.58-3.3-7.48-6.28-47-6.28-47Z" style="fill:#fff;stroke:#263238;stroke-linejoin:round"></path><path d="M390.72,419.71c.65-.66-1.8-5.57-4.18-9.92-4.91,4.56-13.47,5.13-13.47,5.13a7.35,7.35,0,0,0-.9-3.59,6.78,6.78,0,0,0-1.48-1.36c-3.08,3.27-9.43,9.69-13.18,11.23-5.09,2.1-7.48,3.29-6.28,4.79s10.17,1.8,17,1.8,9.28-3,17.06-5.09C385.34,422.7,389.52,420.9,390.72,419.71Z" style="fill:#fff;stroke:#263238;stroke-linejoin:round"></path><path d="M338.44,317s4.49,16.16,6,19.75c1,2.39,12.53,35.85,20.8,54.74,3.27-.92,9.83-2.72,14.31-5.27-.84-10.51-4.72-26.78-5.19-31.82-.9-9.57-5.09-19.75-6.58-22.74s-3-6.58-3.3-7.48-6.28-47-6.28-47Z" style="fill:#263238;stroke:#263238;stroke-linejoin:round"></path><path d="M326.43,267.45S316,324.79,316,334.37s-4.79,73.6-4.79,73.6-9.87,5.39-14.36,7.18-11.67,2.7-11.67,4.49,13.17,4.79,17.36,5.09,17,2.69,18.55,2.39,3-.6,3-7.18a84,84,0,0,1,.6-10.77s1.49-9.87,12.27-48.77c4.91-17.74,1.79-28.73,1.79-30.82s19.75-48.18,20.95-51.17,4.78-9.27,3.29-17.05-3.89-7.78-3.89-7.78H328Z" style="fill:#fff;stroke:#263238;stroke-linejoin:round"></path><path d="M337,360.4c4.91-17.74,1.79-28.73,1.79-30.82s19.75-48.18,20.95-51.17,4.78-9.27,3.29-17.05-3.89-7.78-3.89-7.78H328l-1.54,13.87S316,324.79,316,334.37c0,6.11-1.95,34.43-3.36,54.11l16.09,2.84C330.56,384,333.19,374,337,360.4Z" style="fill:#263238;stroke:#263238;stroke-linejoin:round"></path><path d="M285.18,419.64c0,1.8,13.17,4.79,17.36,5.09s17,2.69,18.55,2.39,3-.6,3-7.18c0-1.67,0-3.19.1-4.52-4.63.65-11.47-.57-11.47-.57a23.48,23.48,0,0,0,.6-5.08c0-2.69-2.1-1.8-2.1-1.8s-9.87,5.39-14.36,7.18S285.18,417.85,285.18,419.64Z" style="fill:none;stroke:#263238;stroke-linejoin:round"></path><path d="M321.32,249.58l-13.9,20.54s-7.59-.37-9.35.07-7.72,9-7.72,9,.19-.34,1,1.69c.6,1.44,9.08,1,9.08,1,1.57-1.07-.47-2.66.84-3.47a10,10,0,0,1,5.34-1.4l19.51-13.88Z" style="fill:#263238;stroke:#263238;stroke-linejoin:round"></path><path d="M341.86,154.18S318.45,185,316.65,189.52s2,60.34,1.8,63,.45,19.13.45,19.13h25.89s.68-5.18.9-5.85,2.25,5.4,2.25,5.4a7,7,0,0,0,5,.45c3.15-.67,15.3-1.35,15.3-1.35l-8.1-47.72s.9-39.85-3.6-51.55A34,34,0,0,0,341.86,154.18Z" style="fill:#c9c9c9;stroke:#263238;stroke-linejoin:round"></path><line x1="321.5" y1="234.27" x2="321.57" y2="238.98" style="fill:none;stroke:#263238;stroke-linejoin:round"></line><line x1="321.11" y1="210.3" x2="321.45" y2="231.54" style="fill:none;stroke:#263238;stroke-linejoin:round"></line><line x1="325.51" y1="212.15" x2="327.13" y2="226.26" style="fill:none;stroke:#263238;stroke-linejoin:round"></line><rect x="62.48" y="427.79" width="382" height="11.25" style="fill:#263238;stroke:#263238;stroke-linejoin:round"></rect><rect x="107.42" y="277.18" width="6.13" height="161.69" style="fill:#fff;stroke:#263238;stroke-linejoin:round"></rect><rect x="253.14" y="277.18" width="6.13" height="161.69" style="fill:#fff;stroke:#263238;stroke-linejoin:round"></rect><rect x="398.86" y="277.18" width="6.13" height="161.69" style="fill:#fff;stroke:#263238;stroke-linejoin:round"></rect><rect x="66.57" y="273.76" width="382" height="5.13" style="fill:#fff;stroke:#263238;stroke-linejoin:round"></rect><path d="M336.91,210.46l.22,11.44s-17.33,42.81-18.9,43.94-8.78,3.6-10.81,4.28-3.55,10.48-3.55,11.06,2.17,3.91,2.32,4.34,2.17.15,2.17.15a2.34,2.34,0,0,0,2.46.28,2.49,2.49,0,0,0,2.16,0l1-.57s1.73.57,2.17-.44a60.47,60.47,0,0,0,1.3-6.07s5.2-2.75,6.65-5.21a26.68,26.68,0,0,0,2.31-6.21s27-42.66,27.18-44.68.73-11,.73-11Z" style="fill:#fff;stroke:#263238;stroke-linejoin:round"></path><polyline points="308.36 285.67 306.77 280.17 308.36 274.1" style="fill:none;stroke:#263238;stroke-linejoin:round"></polyline><polyline points="310.81 285.95 309.95 280.31 311.25 275.11" style="fill:none;stroke:#263238;stroke-linejoin:round"></polyline><polyline points="314 285.38 313.13 280.03 314.43 275.54" style="fill:none;stroke:#263238;stroke-linejoin:round"></polyline><polyline points="334.89 182.1 334.66 212.94 356.72 213.61 351.77 177.82" style="fill:#c9c9c9;stroke:#263238;stroke-linejoin:round"></polyline></g><g id="freepik--Floor--inject-2"><line x1="13.22" y1="439.03" x2="490.64" y2="439.03" style="fill:none;stroke:#263238;stroke-linejoin:round"></line></g></svg>
